<svg width="40" height="40" viewBox="0 0 40 40" fill="none" xmlns="http://www.w3.org/2000/svg">
<path d="M20.0168 17.3334C21.4897 17.3334 22.6834 18.5274 22.6834 20C22.6834 21.4727 21.4897 22.6667 20.0168 22.6667C18.5441 22.6667 17.3501 21.4727 17.3501 20C17.3501 18.5274 18.5441 17.3334 20.0168 17.3334Z" fill="#9BC9FF"/>
<path d="M22.6834 20C22.6834 21.4727 21.4897 22.6667 20.0168 22.6667C18.5441 22.6667 17.3501 21.4727 17.3501 20C17.3501 18.5274 18.5441 17.3334 20.0168 17.3334C21.4897 17.3334 22.6834 18.5274 22.6834 20Z" fill="#9BC9FF"/>
<path d="M20.0169 16.6666C18.1761 16.6666 16.6836 18.1591 16.6836 20C16.6836 21.8408 18.1761 23.3333 20.0169 23.3333C21.8581 23.3333 23.3503 21.8408 23.3503 20C23.3483 18.1598 21.8571 16.6689 20.0169 16.6666ZM20.0169 22C18.9124 22 18.0169 21.1045 18.0169 20C18.0169 18.8955 18.9124 18 20.0169 18C21.1217 18 22.0169 18.8955 22.0169 20C22.0169 21.1045 21.1217 22 20.0169 22Z" fill="#1E81CE"/>
<path d="M31.6169 20C32.6189 19.153 33.5711 18.2487 34.4688 17.292C37.3201 14.208 38.3129 11.6859 37.3396 10C35.9395 7.57813 31.2367 8.02734 25.8194 9.9528C24.7761 4.29883 22.8129 0 20.0167 0C17.2208 0 15.2576 4.29883 14.2169 9.95345C8.79957 8.028 4.09482 7.57878 2.6967 10C1.7234 11.6859 2.71624 14.208 5.56747 17.292C6.46461 18.2487 7.41578 19.1527 8.41676 20C7.4148 20.847 6.46265 21.7513 5.56487 22.708C2.71558 25.792 1.72275 28.3141 2.69605 30C3.36272 31.1559 4.78362 31.6579 6.67555 31.6579C9.25985 31.5313 11.8067 30.987 14.2169 30.0459C15.2576 35.7012 17.2208 40 20.0167 40C22.8129 40 24.7761 35.7012 25.8168 30.0466C28.227 30.987 30.7735 31.5313 33.3575 31.6579C35.2488 31.6579 36.6694 31.1553 37.337 30C38.3103 28.3141 37.3175 25.792 34.4662 22.708C33.5691 21.7513 32.6179 20.8473 31.6169 20V20ZM36.185 10.6667C36.809 11.748 35.8015 13.8867 33.4903 16.3867C32.575 17.3607 31.6023 18.2786 30.5769 19.1361C29.3461 18.1462 28.0056 17.1647 26.5668 16.2139C26.4623 14.526 26.2869 12.8633 26.044 11.2806C31.4168 9.35189 35.3341 9.19987 36.1827 10.6667H36.185ZM22.6834 24.6188C21.7794 25.1396 20.8907 25.6243 20.0167 26.0732C19.144 25.6253 18.255 25.1403 17.35 24.6188C16.4574 24.1032 15.5961 23.5693 14.7569 23.028C14.7081 22.0508 14.6834 21.0413 14.6834 20C14.6834 18.9587 14.7081 17.9492 14.7569 16.972C15.5961 16.4307 16.4574 15.8968 17.35 15.3812C18.2533 14.86 19.1423 14.3753 20.0167 13.9274C20.8901 14.3766 21.7807 14.8607 22.6834 15.3812C23.5763 15.8968 24.4376 16.4307 25.2768 16.972C25.3256 17.9492 25.35 18.9587 25.35 20C25.35 21.0413 25.3256 22.0508 25.2768 23.028C24.4376 23.5693 23.5763 24.1032 22.6834 24.6188ZM25.1723 24.6781C25.075 25.932 24.9402 27.1221 24.7722 28.2399C23.7201 27.8245 22.6215 27.346 21.4861 26.8027C22.1127 26.4694 22.7354 26.1273 23.3481 25.7741C23.9607 25.4206 24.5763 25.0495 25.1723 24.6781V24.6781ZM18.5457 26.8001C17.4122 27.3428 16.3116 27.8219 15.2595 28.2373C15.0935 27.1195 14.9587 25.9294 14.8595 24.6755C15.4555 25.0466 16.0629 25.4118 16.6814 25.7715C17.2963 26.1273 17.9187 26.4668 18.5457 26.8001ZM13.3881 22.1152C12.3735 21.4206 11.4155 20.7155 10.5134 20C11.4132 19.2858 12.3712 18.5798 13.3881 17.8822C13.364 18.5885 13.35 19.2959 13.35 20C13.35 20.7041 13.364 21.4115 13.3881 22.1178V22.1152ZM14.8614 15.3193C14.9587 14.0661 15.0935 12.8766 15.2615 11.7594C16.3123 12.1742 17.4096 12.6533 18.5434 13.1953C17.9177 13.5277 17.2983 13.8704 16.6856 14.2233C16.0642 14.5833 15.4561 14.9495 14.8614 15.3219V15.3193ZM21.4897 13.1999C22.6228 12.6572 23.7227 12.1787 24.7742 11.7633C24.9402 12.8812 25.075 14.0713 25.1742 15.3252C24.5769 14.9515 23.9688 14.585 23.35 14.2259C22.738 13.8727 22.1163 13.5332 21.4897 13.1999ZM26.6456 17.8854C27.6602 18.5794 28.6183 19.2845 29.5203 20C28.6205 20.7139 27.6625 21.4199 26.6456 22.1178C26.6694 21.4115 26.6834 20.7041 26.6834 20C26.6834 19.2959 26.6694 18.5885 26.6456 17.8822V17.8854ZM20.0167 1.33333C21.7136 1.33333 23.5395 4.80469 24.5535 10.4232C23.0616 11.0039 21.533 11.6839 20.0203 12.4382C18.5043 11.6839 16.9747 11.0039 15.4867 10.4232C16.4942 4.80534 18.3201 1.33333 20.0167 1.33333V1.33333ZM6.54566 16.3867C4.23414 13.8867 3.22698 11.748 3.851 10.6667C4.22763 10.0146 5.20745 9.68197 6.65081 9.68197C9.16806 9.81445 11.6472 10.3548 13.9916 11.2819C13.7488 12.862 13.5737 14.5241 13.4688 16.2113C12.03 17.1621 10.6895 18.1445 9.45875 19.1335C8.43368 18.277 7.4607 17.3597 6.54566 16.3867ZM3.851 29.3333C3.22698 28.252 4.23414 26.1133 6.54566 23.6133C7.4607 22.6393 8.43336 21.7214 9.45875 20.8639C10.6895 21.8538 12.03 22.8353 13.4688 23.7861C13.5737 25.474 13.7488 27.1367 13.9916 28.7194C8.61695 30.6481 4.69963 30.8001 3.851 29.3333V29.3333ZM20.0167 38.6667C18.3201 38.6667 16.4949 35.1953 15.4835 29.5775C16.9747 28.9967 18.5043 28.3167 20.0203 27.5628C21.5362 28.3167 23.0655 28.9967 24.5567 29.5775C23.5388 35.1953 21.7136 38.6667 20.0167 38.6667V38.6667ZM36.1827 29.3333C35.3347 30.8001 31.4148 30.6481 26.0421 28.7174C26.2849 27.1367 26.46 25.474 26.5649 23.7839C28.0037 22.8333 29.3442 21.8506 30.575 20.862C31.6003 21.7191 32.573 22.6374 33.488 23.6113C35.7996 26.1133 36.8067 28.252 36.1827 29.3333V29.3333Z" fill="#1E81CE"/>
</svg>
