<svg width="40" height="40" viewBox="0 0 40 40" fill="none" xmlns="http://www.w3.org/2000/svg">
<path d="M40 20C40 20.618 39.9723 21.2286 39.9167 21.8319C39.8743 22.3095 39.8138 22.7812 39.7371 23.2474C38.1861 32.7486 29.9396 40 20 40C14.9371 40 10.3143 38.1192 6.79102 35.0171C5.48898 33.8718 4.33711 32.5591 3.36898 31.1127C1.24078 27.9347 0 24.1119 0 20C0 8.9543 8.9543 0 20 0C31.0457 0 40 8.9543 40 20Z" fill="#F2F2F2"/>
<path d="M34.9035 22.2637C34.2969 22.4931 34.3214 22.4972 34.0006 21.9127C33.5908 21.1683 33.3728 20.3854 33.354 19.534C33.3385 18.8034 33.5385 18.1242 33.7899 17.458C33.9907 16.9283 33.7295 16.7413 33.2707 16.6931C32.9368 16.6588 32.5924 16.6621 32.2577 16.6964C31.3874 16.7854 31.3017 16.8605 31.0707 17.7054C30.9336 18.2066 30.8242 18.7119 30.5964 19.1878C30.0348 20.3592 29.3964 21.4874 28.7417 22.6074C28.6242 22.8091 28.527 23.0262 28.3613 23.1984C27.887 22.4882 27.7083 21.7037 27.6683 20.8809C27.6283 20.0686 27.8773 19.3135 28.1507 18.5666C28.243 18.3151 28.1663 18.1592 27.9491 18.0506C27.8528 18.0025 27.745 17.9576 27.6397 17.9494C27.0813 17.9053 26.5246 17.9118 25.9801 18.0644C25.7352 18.1322 25.5752 18.2694 25.5205 18.5444C25.4144 19.0824 25.2487 19.6048 25.0249 20.1077C24.4045 21.5004 23.7882 22.8955 23.1686 24.289C22.6299 25.4996 22.0992 26.7134 21.4609 27.8759C21.416 27.9584 21.3785 28.1012 21.2658 28.0726C21.1515 28.0441 21.1915 27.9037 21.1866 27.8073C21.1499 27.1216 21.3368 26.4677 21.496 25.813C21.7482 24.7771 22.0241 23.7461 22.2919 22.7134C22.3686 22.4171 22.2396 22.2179 21.9939 22.0759C21.6405 21.8726 21.2886 21.8628 20.9058 22.1477C20.9581 21.7264 20.9809 21.3566 20.9629 20.9869C20.9221 20.1624 20.54 19.6261 19.8748 19.5019C19.3891 19.4113 18.9295 19.5526 18.4952 19.7583C17.4829 20.2375 16.6691 20.9599 15.9849 21.8366C15.9049 21.9387 15.8242 22.0326 15.7082 22.0954C14.4242 22.795 13.1409 23.4946 11.8601 24.2007C11.7197 24.2791 11.6291 24.257 11.5278 24.1484C10.8829 23.457 10.1344 22.8864 9.39314 22.3076C8.3572 21.4979 7.28541 20.7305 6.3915 19.7542C5.86908 19.1828 5.43314 18.5566 5.21517 17.8008C4.85924 16.5648 5.12541 15.4138 5.71806 14.32C6.41931 13.0261 7.45931 12.0269 8.60619 11.1371C10.4274 9.72484 12.4249 8.6032 14.5303 7.67999C16.8878 6.64734 19.3335 5.98202 21.9384 6.08241C22.9703 6.12241 23.9718 6.30116 24.891 6.80648C25.5417 7.16406 25.9727 7.68077 26.0943 8.43913C26.2372 9.32726 26.0241 10.1477 25.6299 10.9257C24.7491 12.6637 23.3491 13.8947 21.6943 14.8587C20.3163 15.6612 18.8299 16.1706 17.2567 16.4375C16.3874 16.5852 15.5147 16.6742 14.6404 16.5412C13.6371 16.3885 12.7098 16.053 12.0233 15.2448C11.9441 15.1518 11.8437 15.0873 11.709 15.1526C11.571 15.2195 11.5817 15.3419 11.5947 15.4595C11.6045 15.5403 11.6266 15.6219 11.6551 15.6987C11.8388 16.1943 12.1824 16.5681 12.5849 16.8947C13.6314 17.7461 14.8714 17.9959 16.1735 18.0212C17.4478 18.0466 18.7024 17.8849 19.9441 17.5878C22.7449 16.9184 25.091 15.5445 26.8037 13.1902C27.8274 11.7829 28.4756 10.2319 28.4184 8.45718C28.3817 7.33148 28.0028 6.33718 27.1824 5.52906C26.2069 4.56984 24.9963 4.08741 23.6975 3.79765C22.251 3.47601 20.7898 3.4303 19.3138 3.60663C18.0298 3.76007 16.7751 4.02296 15.5538 4.44335C13.6853 5.08741 11.8804 5.87843 10.1531 6.84007C8.3833 7.82452 6.71549 8.95195 5.25267 10.3641C3.95799 11.6139 2.84533 12.9927 2.21838 14.7045C1.95064 15.4376 1.75799 16.1911 1.93759 16.9837C2.16783 18.0041 2.67064 18.8874 3.33189 19.6841C4.33189 20.8907 5.55884 21.8409 6.82416 22.7486C7.84049 23.4784 8.90416 24.1429 9.88048 24.9273C10.1572 25.1494 10.1556 25.1494 9.82986 25.32C9.44947 25.5184 9.06494 25.7094 8.69111 25.9208C7.18345 26.7731 5.72634 27.6972 4.53689 28.9813C3.95158 29.614 3.554 30.3242 3.36877 31.1127C4.33689 32.5593 5.48877 33.8719 6.7908 35.0172C9.01205 34.8441 10.7124 33.6882 11.9688 31.7764C12.5753 30.8531 12.8594 29.8083 12.9663 28.7062C13.0603 27.7348 12.9614 26.7943 12.6757 25.8669C12.626 25.7037 12.4406 25.5412 12.5133 25.3976C12.581 25.2653 12.7852 25.1984 12.9353 25.1119C13.541 24.76 14.1484 24.4131 14.772 24.0548C14.799 24.1887 14.7467 24.267 14.7239 24.3519C14.3663 25.6637 14.1174 26.9862 14.3892 28.3494C14.5582 29.1984 14.8399 29.9976 15.3753 30.7005C15.9263 31.4237 17.1566 31.3412 17.6561 30.6809C18.1304 30.0539 18.4447 29.3469 18.772 28.6433C18.9517 28.258 19.1165 27.8662 19.288 27.4767C19.2561 27.9453 19.2578 28.4024 19.2749 28.858C19.292 29.3069 19.3639 29.7502 19.5974 30.1469C19.8781 30.6237 20.4063 30.7625 20.897 30.5077C21.4145 30.2391 21.7672 29.7967 22.0414 29.3167C23.2178 27.2523 24.3092 25.1437 25.2128 22.942C25.4055 22.4743 25.6031 22.0073 25.821 21.4873C25.8545 21.658 25.8766 21.7624 25.897 21.8669C26.0978 22.9159 26.4553 23.9086 26.9729 24.8416C27.0839 25.0416 27.0717 25.1796 26.9313 25.3714C26.4545 26.0204 25.932 26.631 25.417 27.2481C24.9843 27.7673 24.5214 28.2637 24.1557 28.8351C23.8276 29.3494 24.0161 29.8759 24.5623 29.9926C24.7304 30.0286 24.9076 30.0392 25.0799 30.0367C26.0342 30.0253 26.9149 29.7404 27.7354 29.2734C28.8399 28.6441 29.4946 27.7216 29.4644 26.4081C29.4505 25.8105 29.2888 25.2367 29.0481 24.6889C28.995 24.5673 28.9925 24.4791 29.0717 24.3648C29.8367 23.2693 30.5125 22.1208 31.1338 20.9387C31.244 20.7306 31.3215 20.4995 31.4995 20.2963C31.5231 20.3787 31.5419 20.4302 31.5525 20.4833C31.7501 21.4629 32.0162 22.4204 32.5158 23.2947C32.6529 23.5339 32.5844 23.6555 32.395 23.8155C31.7428 24.3698 31.1926 25.0162 30.7607 25.7567C30.4244 26.333 30.1942 26.9485 30.1967 27.6237C30.1991 28.3747 30.7738 28.8171 31.506 28.6408C32.2693 28.4579 32.977 28.1469 33.6121 27.6824C34.9958 26.6694 35.4015 25.6008 34.9681 24.1094C34.7983 23.5224 34.8015 23.5323 35.3901 23.3543C36.6774 22.9657 37.9835 22.9494 39.2962 23.1633C39.4448 23.1877 39.5917 23.2155 39.737 23.2473C39.8137 22.7812 39.8741 22.3094 39.9166 21.8318C38.2374 21.4213 36.5606 21.6344 34.9035 22.2637ZM7.70181 32.7658C7.32877 32.898 6.94103 32.9544 6.54424 32.9234C6.05033 32.8841 5.73689 32.5356 5.70502 32.0115C5.66908 31.4074 5.84791 30.8621 6.11236 30.3315C6.59314 29.3682 7.40049 28.7144 8.22424 28.0727C9.02502 27.4483 9.88549 26.9151 10.7556 26.3968C11.0193 26.2401 11.0234 26.2417 11.0838 26.556C11.1621 26.9593 11.2324 27.3633 11.2062 27.7299C11.2749 29.9282 9.67814 32.0662 7.70181 32.7658ZM19.6838 21.6809C19.5451 22.6074 19.2422 23.4898 18.9198 24.3616C18.4806 25.5519 18.0528 26.7477 17.5002 27.8923C17.3736 28.1559 17.2406 28.418 17.0357 28.6326C16.8423 28.8359 16.6708 28.8123 16.537 28.5641C16.2757 28.0791 16.3084 27.5396 16.266 27.1477C16.2782 25.182 16.9378 23.5755 18.0243 22.1314C18.328 21.729 18.7157 21.4016 19.2292 21.2701C19.5778 21.1813 19.7385 21.3217 19.6838 21.6809ZM27.292 27.5005C26.9198 28.1437 26.3835 28.6115 25.7255 28.9445C25.6553 28.9796 25.5647 29.0416 25.501 28.9592C25.4406 28.8816 25.5378 28.8302 25.5818 28.7812C26.2357 28.0669 26.8814 27.3469 27.4635 26.5723C27.4724 26.56 27.4945 26.5583 27.5442 26.5372C27.5385 26.8956 27.4602 27.2107 27.292 27.5005ZM31.8071 27.4727C31.71 27.5184 31.5974 27.6041 31.5027 27.5307C31.3982 27.4499 31.4398 27.307 31.4717 27.1976C31.6203 26.6989 31.8203 26.2213 32.0961 25.7764C32.3279 25.4017 32.6153 25.0744 32.9312 24.7691C33.0585 24.6466 33.1156 24.6613 33.1589 24.8376C33.2038 25.018 33.2079 25.1984 33.2112 25.3821C33.2031 26.387 32.6928 27.0556 31.8071 27.4727Z" fill="#CD6699"/>
</svg>
